<mxfile host="d9e6a282-1ac4-46d4-8a41-6770b24b2c30" modified="2020-08-30T05:29:18.710Z" agent="5.0 (Windows NT 10.0; Win64; x64) AppleWebKit/537.36 (KHTML, like Gecko) Code/1.48.2 Chrome/78.0.3904.130 Electron/7.3.2 Safari/537.36" etag="V4YqQnjkGg_4FRLe68EB" version="13.1.3">
    <diagram id="6hGFLwfOUW9BJ-s0fimq" name="Page-1">
        <mxGraphModel dx="992" dy="451" grid="1" gridSize="10" guides="1" tooltips="1" connect="1" arrows="1" fold="1" page="1" pageScale="1" pageWidth="827" pageHeight="1169" math="0" shadow="0">
            <root>
                <mxCell id="0"/>
                <mxCell id="1" parent="0"/>
                <mxCell id="2" value="" style="rounded=0;whiteSpace=wrap;html=1;fillColor=#f5f5f5;strokeColor=#666666;fontColor=#333333;" parent="1" vertex="1">
                    <mxGeometry x="40" y="40" width="140" height="290" as="geometry"/>
                </mxCell>
                <mxCell id="3" value="Farnet" style="text;html=1;align=center;verticalAlign=middle;whiteSpace=wrap;rounded=0;fontColor=#030303;" parent="1" vertex="1">
                    <mxGeometry x="40" y="40" width="40" height="20" as="geometry"/>
                </mxCell>
                <mxCell id="4" value="" style="rounded=1;whiteSpace=wrap;html=1;fillColor=#8a96ff;fontColor=#030303;labelBackgroundColor=#9999FF;gradientColor=#71d8d4;gradientDirection=east;" parent="1" vertex="1">
                    <mxGeometry x="50" y="60" width="120" height="30" as="geometry"/>
                </mxCell>
                <mxCell id="5" value="&lt;font style=&quot;font-size: 10px&quot; color=&quot;#ffffff&quot;&gt;Matthew Budiman&lt;/font&gt;" style="text;html=1;align=center;verticalAlign=middle;whiteSpace=wrap;rounded=0;fontColor=#030303;" parent="1" vertex="1">
                    <mxGeometry x="50" y="60" width="120" height="30" as="geometry"/>
                </mxCell>
                <mxCell id="6" value="" style="rounded=0;whiteSpace=wrap;html=1;labelBackgroundColor=#9999FF;fillColor=#dae8fc;strokeColor=#6c8ebf;" parent="1" vertex="1">
                    <mxGeometry x="45" y="100" width="30" height="30" as="geometry"/>
                </mxCell>
                <mxCell id="7" value="" style="shape=switch;whiteSpace=wrap;html=1;labelBackgroundColor=#9999FF;fillColor=#ffffff;gradientColor=none;fontColor=#030303;" parent="1" vertex="1">
                    <mxGeometry x="50" y="105" width="20" height="20" as="geometry"/>
                </mxCell>
                <mxCell id="8" value="" style="rounded=1;whiteSpace=wrap;html=1;labelBackgroundColor=#9999FF;fillColor=#ffffff;gradientColor=none;fontColor=#030303;" parent="1" vertex="1">
                    <mxGeometry x="95" y="100" width="80" height="30" as="geometry"/>
                </mxCell>
                <mxCell id="9" value="App Title" style="text;html=1;align=center;verticalAlign=middle;whiteSpace=wrap;rounded=0;fontColor=#030303;" parent="1" vertex="1">
                    <mxGeometry x="85" y="100" width="70" height="30" as="geometry"/>
                </mxCell>
                <mxCell id="11" value="" style="shape=offPageConnector;whiteSpace=wrap;html=1;labelBackgroundColor=#9999FF;fillColor=#dae8fc;rotation=-90;strokeColor=#6c8ebf;" parent="1" vertex="1">
                    <mxGeometry x="155" y="105" width="20" height="20" as="geometry"/>
                </mxCell>
                <mxCell id="15" value="" style="rounded=0;whiteSpace=wrap;html=1;labelBackgroundColor=#9999FF;fillColor=#d5e8d4;strokeColor=#82b366;" parent="1" vertex="1">
                    <mxGeometry x="45" y="140" width="30" height="30" as="geometry"/>
                </mxCell>
                <mxCell id="16" value="" style="shape=switch;whiteSpace=wrap;html=1;labelBackgroundColor=#9999FF;fillColor=#ffffff;gradientColor=none;fontColor=#030303;" parent="1" vertex="1">
                    <mxGeometry x="50" y="145" width="20" height="20" as="geometry"/>
                </mxCell>
                <mxCell id="17" value="" style="rounded=1;whiteSpace=wrap;html=1;labelBackgroundColor=#9999FF;fillColor=#ffffff;gradientColor=none;fontColor=#030303;" parent="1" vertex="1">
                    <mxGeometry x="95" y="140" width="80" height="30" as="geometry"/>
                </mxCell>
                <mxCell id="18" value="App Title" style="text;html=1;align=center;verticalAlign=middle;whiteSpace=wrap;rounded=0;fontColor=#030303;" parent="1" vertex="1">
                    <mxGeometry x="85" y="140" width="70" height="30" as="geometry"/>
                </mxCell>
                <mxCell id="19" value="" style="shape=offPageConnector;whiteSpace=wrap;html=1;labelBackgroundColor=#9999FF;fillColor=#d5e8d4;rotation=-90;strokeColor=#82b366;" parent="1" vertex="1">
                    <mxGeometry x="155" y="145" width="20" height="20" as="geometry"/>
                </mxCell>
                <mxCell id="20" value="" style="rounded=0;whiteSpace=wrap;html=1;labelBackgroundColor=#9999FF;fillColor=#dae8fc;strokeColor=#6c8ebf;" parent="1" vertex="1">
                    <mxGeometry x="45" y="180" width="30" height="30" as="geometry"/>
                </mxCell>
                <mxCell id="21" value="" style="shape=switch;whiteSpace=wrap;html=1;labelBackgroundColor=#9999FF;fillColor=#ffffff;gradientColor=none;fontColor=#030303;" parent="1" vertex="1">
                    <mxGeometry x="50" y="185" width="20" height="20" as="geometry"/>
                </mxCell>
                <mxCell id="22" value="" style="rounded=1;whiteSpace=wrap;html=1;labelBackgroundColor=#9999FF;fillColor=#ffffff;gradientColor=none;fontColor=#030303;" parent="1" vertex="1">
                    <mxGeometry x="95" y="180" width="80" height="30" as="geometry"/>
                </mxCell>
                <mxCell id="23" value="App Title" style="text;html=1;align=center;verticalAlign=middle;whiteSpace=wrap;rounded=0;fontColor=#030303;" parent="1" vertex="1">
                    <mxGeometry x="85" y="180" width="70" height="30" as="geometry"/>
                </mxCell>
                <mxCell id="24" value="" style="shape=offPageConnector;whiteSpace=wrap;html=1;labelBackgroundColor=#9999FF;fillColor=#dae8fc;rotation=-90;strokeColor=#6c8ebf;" parent="1" vertex="1">
                    <mxGeometry x="155" y="185" width="20" height="20" as="geometry"/>
                </mxCell>
                <mxCell id="30" value="" style="rounded=0;whiteSpace=wrap;html=1;labelBackgroundColor=#9999FF;fillColor=#dae8fc;strokeColor=#6c8ebf;" parent="1" vertex="1">
                    <mxGeometry x="45" y="260" width="30" height="30" as="geometry"/>
                </mxCell>
                <mxCell id="31" value="" style="shape=switch;whiteSpace=wrap;html=1;labelBackgroundColor=#9999FF;fillColor=#ffffff;gradientColor=none;fontColor=#030303;" parent="1" vertex="1">
                    <mxGeometry x="50" y="265" width="20" height="20" as="geometry"/>
                </mxCell>
                <mxCell id="32" value="" style="rounded=1;whiteSpace=wrap;html=1;labelBackgroundColor=#9999FF;fillColor=#ffffff;gradientColor=none;fontColor=#030303;" parent="1" vertex="1">
                    <mxGeometry x="95" y="260" width="80" height="30" as="geometry"/>
                </mxCell>
                <mxCell id="33" value="App Title" style="text;html=1;align=center;verticalAlign=middle;whiteSpace=wrap;rounded=0;fontColor=#030303;" parent="1" vertex="1">
                    <mxGeometry x="85" y="260" width="70" height="30" as="geometry"/>
                </mxCell>
                <mxCell id="34" value="" style="shape=offPageConnector;whiteSpace=wrap;html=1;labelBackgroundColor=#9999FF;fillColor=#dae8fc;rotation=-90;strokeColor=#6c8ebf;" parent="1" vertex="1">
                    <mxGeometry x="155" y="265" width="20" height="20" as="geometry"/>
                </mxCell>
                <mxCell id="37" value="" style="rounded=0;whiteSpace=wrap;html=1;labelBackgroundColor=#9999FF;fillColor=#d5e8d4;strokeColor=#82b366;" parent="1" vertex="1">
                    <mxGeometry x="45" y="220" width="30" height="30" as="geometry"/>
                </mxCell>
                <mxCell id="38" value="" style="shape=switch;whiteSpace=wrap;html=1;labelBackgroundColor=#9999FF;fillColor=#ffffff;gradientColor=none;fontColor=#030303;" parent="1" vertex="1">
                    <mxGeometry x="50" y="225" width="20" height="20" as="geometry"/>
                </mxCell>
                <mxCell id="39" value="" style="rounded=1;whiteSpace=wrap;html=1;labelBackgroundColor=#9999FF;fillColor=#ffffff;gradientColor=none;fontColor=#030303;" parent="1" vertex="1">
                    <mxGeometry x="95" y="220" width="80" height="30" as="geometry"/>
                </mxCell>
                <mxCell id="40" value="App Title" style="text;html=1;align=center;verticalAlign=middle;whiteSpace=wrap;rounded=0;fontColor=#030303;" parent="1" vertex="1">
                    <mxGeometry x="85" y="220" width="70" height="30" as="geometry"/>
                </mxCell>
                <mxCell id="41" value="" style="shape=offPageConnector;whiteSpace=wrap;html=1;labelBackgroundColor=#9999FF;fillColor=#d5e8d4;rotation=-90;strokeColor=#82b366;" parent="1" vertex="1">
                    <mxGeometry x="155" y="225" width="20" height="20" as="geometry"/>
                </mxCell>
                <mxCell id="42" value="Home Page&lt;br&gt;" style="text;html=1;align=center;verticalAlign=middle;resizable=0;points=[];autosize=1;" vertex="1" parent="1">
                    <mxGeometry x="70" y="10" width="80" height="20" as="geometry"/>
                </mxCell>
            </root>
        </mxGraphModel>
    </diagram>
</mxfile>